<?xml version="1.0" encoding="utf-8"?>
<!-- Generator: Adobe Illustrator 16.0.0, SVG Export Plug-In . SVG Version: 6.00 Build 0)  -->
<!DOCTYPE svg PUBLIC "-//W3C//DTD SVG 1.0//EN" "http://www.w3.org/TR/2001/REC-SVG-20010904/DTD/svg10.dtd">
<svg version="1.0" id="Layer_1" xmlns="http://www.w3.org/2000/svg" xmlns:xlink="http://www.w3.org/1999/xlink" x="0px" y="0px"
	 width="800px" height="800px" viewBox="0 0 800 800" enable-background="new 0 0 800 800" xml:space="preserve">
<g>
	<path fill="#080506" d="M731.037,699.631c0,43.417-35.663,79.079-79.077,79.079H148.039c-43.414,0.775-79.076-34.887-79.076-79.079
		V100.354c0-43.415,35.662-79.077,79.076-79.077h503.146c43.415,0,79.077,35.662,79.077,79.077v599.276H731.037z"/>
	<g>
		<path fill="#FFFFFF" d="M214.712,648.468c3.876-0.778,6.202-0.778,7.752-2.328c1.552-1.549,1.552-3.877,0-6.201
			c-3.1-6.979-10.854-11.631-20.155-11.631c-14.731,0-25.585,10.08-25.585,24.81C176.724,653.117,213.161,649.243,214.712,648.468
			 M223.24,659.32l-46.517,4.652c1.552,14.729,13.18,20.155,24.808,20.155h30.236c3.876,0,6.978,3.102,6.978,6.979
			c0,2.326,0,6.2,0,6.2h-37.214c-20.932,0-37.986-13.179-37.986-41.09c0-23.257,16.279-39.537,40.313-39.537
			c17.056,0,30.235,10.078,34.111,25.583C239.52,651.567,234.094,657.768,223.24,659.32"/>
		<path fill="#FFFFFF" d="M386.82,616.68c4.652,0,7.752,2.326,7.752,6.203c0,4.649-3.1,6.2-7.752,6.2h-32.562
			c-6.977,0.775-7.752,7.755-6.977,11.629c0,1.551,0.774,2.325,1.549,3.101c2.326,1.552,6.203,2.327,9.305,3.103l24.808,4.652
			c13.181,2.325,17.831,9.302,17.831,20.933c0,18.606-11.628,24.807-28.685,24.807h-41.089c0,0,0-4.649,0-6.2
			c0-4.652,3.101-6.205,7.753-6.205h32.562c12.403,0,16.279-3.875,16.279-10.852c0-6.202-1.55-8.528-10.077-10.077l-24.809-3.879
			c-12.404-2.326-17.832-8.526-18.607-17.057c-0.774-12.401,3.877-25.582,20.933-25.582h31.786V616.68z"/>
		<path fill="#FFFFFF" d="M462.021,668.623c0,13.954-7.753,18.606-20.933,18.606c-11.63,0-18.607-4.652-18.607-13.954
			c0-6.979,6.202-11.631,13.181-13.182c6.978-1.549,17.832-1.549,26.359-3.877V668.623z M475.977,644.591
			c0-13.955-3.878-28.688-24.808-28.688h-29.462c-4.652,0-7.753,2.327-7.753,6.204c0,4.65,3.101,6.2,7.753,6.2h27.135
			c9.302,0,13.18,2.328,13.18,9.305v2.326c-0.778,3.874-5.428,5.426-7.753,5.426c-19.382,4.652-45.741-0.773-45.741,27.911
			c0,14.729,13.18,24.031,30.236,24.031c0,0,17.83,0.775,24.032-7.753c0,0,0,0,0,0.778c0.775,4.649,2.328,6.975,6.979,6.975h5.425
			L475.977,644.591z"/>
		<path fill="#FFFFFF" d="M568.231,668.623c0,13.954-7.752,18.606-20.932,18.606c-11.627,0-18.607-4.652-18.607-13.954
			c0-6.979,6.203-11.631,13.18-13.182c6.979-1.549,17.829-1.549,26.359-3.877V668.623z M582.188,644.591
			c0-13.955-3.876-28.688-24.81-28.688h-29.46c-4.65,0-7.753,2.327-7.753,6.204c0,4.65,3.103,6.2,7.753,6.2h27.134
			c9.305,0,13.18,2.328,13.18,9.305v2.326c-0.773,3.874-5.427,5.426-7.752,5.426c-19.382,4.652-45.742-0.773-45.742,27.911
			c0,14.729,13.181,24.031,30.235,24.031c0,0,17.832,0.775,24.034-7.753c0,0,0,0,0,0.778c0.774,4.649,2.325,6.975,6.978,6.975h6.203
			V644.591z"/>
		<path fill="#FFFFFF" d="M503.886,594.198h-7.752c-6.98,0-6.203,6.2-6.203,6.2V675.6v21.707h13.955V594.198z"/>
		<path fill="#FFFFFF" d="M283.71,685.677c-10.853,0-14.729-0.775-14.729-8.524v-48.069h12.403c4.652,0,7.753-2.325,7.753-6.2
			c0-4.652-3.101-6.203-7.753-6.203H268.98v-13.954l0,0v-7.752h-6.202c-1.551,0-2.326,0-3.102,0c-5.428,0.775-5.428,6.2-5.428,6.2
			v15.506h-3.876c-4.65,0-7.752,2.326-7.752,6.203c0,4.649,3.102,6.2,7.752,6.2h3.876v40.314v10.854
			c0,17.055,11.63,17.055,28.687,17.055c3.101,0,8.527,0,8.527,0s0-3.874,0-5.425C292.238,688.005,289.137,685.677,283.71,685.677"
			/>
		<path fill="#FFFFFF" d="M629.476,685.677c-10.853,0-14.729-0.775-14.729-8.524v-48.069h12.404c4.652,0,7.756-2.325,7.756-6.2
			c0-4.652-3.104-6.203-7.756-6.203h-12.404v-13.954l0,0v-7.752h-6.2c-1.55,0-2.324,0-3.102,0c-5.428,0.775-5.428,6.2-5.428,6.2
			v15.506h-3.875c-4.649,0-7.753,2.326-7.753,6.203c0,4.649,3.104,6.2,7.753,6.2h3.875v40.314v10.854
			c0,17.055,11.63,17.055,28.685,17.055c3.102,0,8.529,0,8.529,0s0-3.874,0-5.425C638.006,688.005,634.906,685.677,629.476,685.677"
			/>
		<path fill="#FFFFFF" d="M318.598,697.307v-81.403h-7.753c-5.428,0-6.202,3.103-6.202,6.204c0,0.775,0,75.199,0,75.199H318.598z"/>
		<path fill="#FFFFFF" d="M310.068,610.479c3.102,0,5.428,0,6.978-1.55c1.552-1.551,1.552-3.878,1.552-6.979
			c0-1.551,0-6.976,0-6.976h-7.753c-5.428,0-6.202,3.1-6.202,6.2c0,0.775,0,9.305,0,9.305H310.068"/>
		<path fill="#C7D532" d="M164.319,153.073c-20.932,27.133-20.932,70.549-7.752,125.591
			c19.382,76.751,52.718,155.054,68.223,206.996c17.831,52.72,17.831,80.629,24.809,83.729c0.774,0,1.551,0.775,2.326,0.775
			c9.303,0,31.785-13.955,80.627-28.685c51.167-17.83,134.122-35.662,207.771-64.347c51.943-20.156,87.604-45.742,97.684-78.302
			c-16.28,22.482-46.514,41.09-86.828,56.595c-73.652,28.685-156.605,46.514-207.771,64.347
			c-48.067,13.954-71.324,28.685-80.628,28.685c-0.775,0-1.551,0-2.326-0.775c-6.978-3.877-6.978-31.012-24.809-83.729
			c-15.505-51.941-48.842-129.469-68.223-206.996C157.343,215.093,155.017,179.432,164.319,153.073 M309.294,193.386
			c-11.629,0-22.482,1.551-31.786,4.651c-35.662,10.854-50.392,44.966-47.29,91.481c3.1,46.516,17.055,95.358,27.909,130.245
			c11.629,35.662,20.155,58.145,34.887,65.896c4.651,2.325,9.303,3.101,15.505,3.101c13.955,0,32.562-5.425,58.146-13.181
			c34.886-11.627,82.952-27.907,122.489-52.716c39.539-24.809,58.922-55.82,47.294-91.482
			c-10.854-34.887-52.719-75.2-110.088-104.66C384.495,205.014,342.631,193.386,309.294,193.386 M319.372,477.133
			c-8.527,0-15.504-1.553-20.932-3.877c-26.358-13.18-46.516-78.302-46.516-144.974c0-43.415,27.909-67.448,68.997-67.448
			c22.484,0,48.067,6.978,75.977,20.933c79.853,41.089,100.785,106.21,46.516,144.975
			C401.55,457.751,351.157,477.133,319.372,477.133"/>
		<path fill="#506A32" d="M251.925,101.905c-15.506,0-29.461,1.55-41.09,6.202c-24.809,7.752-39.538,23.257-47.29,44.966
			c8.527-10.855,20.155-19.382,35.662-24.033c11.628-3.876,25.583-6.203,41.088-6.203c53.494,0,128.694,22.482,206.219,62.796
			C547.3,236.8,621.726,302.698,637.23,354.641c3.101,8.527,3.876,16.281,3.876,24.033c0,6.978-0.775,13.179-3.101,19.381
			c9.302-12.403,13.954-26.358,13.954-41.088c0-7.754-1.549-15.506-3.874-24.033c-15.508-51.943-89.158-117.066-189.167-169.008
			C381.394,124.388,306.192,101.905,251.925,101.905"/>
		<path fill="#7EA833" d="M241.071,122.837c-15.506,0-29.461,1.55-41.089,6.203c-15.505,4.651-27.135,12.403-35.663,24.033
			c-9.303,26.358-6.977,62.02,3.877,103.884c19.381,76.751,52.718,155.054,67.447,206.996
			c17.831,53.492,17.831,80.626,24.809,83.729c0.775,0,1.551,0.775,2.326,0.775c9.304,0,31.786-13.955,80.628-28.685
			c51.166-17.833,134.119-35.662,207.771-64.347c40.314-15.505,70.548-34.112,86.828-56.595c4.649-13.179,3.874-27.909-0.775-43.416
			c-15.505-51.942-89.155-117.063-189.164-169.007C369.764,145.319,295.339,122.837,241.071,122.837 M308.519,488.761
			c-6.202,0-10.854-0.775-15.505-3.101c-14.731-7.752-22.482-30.234-34.887-65.896c-10.854-34.887-25.585-83.729-27.909-130.245
			c-3.102-46.516,11.628-80.627,47.29-91.481c9.304-3.101,20.157-4.651,31.786-4.651c33.337,0,75.201,11.628,117.065,33.336
			c57.369,29.46,99.233,69.773,110.088,104.66c11.628,35.662-7.755,66.673-47.294,91.482
			c-39.537,24.807-87.604,41.089-122.489,52.716C341.08,483.336,322.474,488.761,308.519,488.761"/>
	</g>
</g>
</svg>
